<svg xmlns="http://www.w3.org/2000/svg" fill="none" viewBox="0 0 50 50">
  <path fill="#5BC0BE" d="M6.396.059c-.107.02-.439.088-.732.146-2.12.43-4.19 2.188-5.098 4.336C.05 5.771.05 5.791.05 11.768c0 5.976 0 5.996.517 7.226.909 2.139 2.832 3.78 5.098 4.356.791.195 11.416.195 12.207 0a7.63 7.63 0 005.479-5.479c.195-.79.195-11.416 0-12.207-.665-2.627-2.608-4.61-5.332-5.45C17.608.089 16.67.06 12.06.04 9.053.03 6.504.04 6.396.06zm10.606 2.968a4.442 4.442 0 013.506 3.506c.127.703.127 9.766 0 10.469a4.442 4.442 0 01-3.506 3.506c-.703.127-9.766.127-10.469 0a4.442 4.442 0 01-3.506-3.506c-.127-.703-.127-9.766 0-10.469.323-1.719 1.748-3.164 3.428-3.496.625-.127 9.912-.127 10.547-.01z"/>
  <path fill="#5BC0BE" d="M32.861.059c-.107.02-.44.088-.732.146-2.1.43-4.19 2.197-5.078 4.287-.528 1.25-.518 1.114-.586 7.373-.04 3.223-.108 5.987-.147 6.153-.566 2.353-1.435 3.984-2.88 5.42-1.436 1.445-3.067 2.314-5.42 2.88-.157.04-2.93.108-6.153.147-4.824.049-5.947.088-6.347.215C2.813 27.5.85 29.502.186 32.129c-.196.791-.196 11.416 0 12.207a7.63 7.63 0 005.478 5.479c.791.195 11.416.195 12.207 0 2.246-.577 4.19-2.217 5.078-4.307.528-1.25.518-1.113.586-7.373.04-3.223.108-5.996.147-6.152.566-2.354 1.435-3.985 2.88-5.42 1.436-1.446 3.067-2.315 5.42-2.881.166-.04 2.93-.108 6.153-.147 4.824-.049 5.947-.088 6.347-.215 2.706-.82 4.668-2.822 5.333-5.449.195-.79.195-11.416 0-12.207-.665-2.627-2.608-4.61-5.333-5.45-.41-.126-1.347-.155-5.957-.175-3.007-.01-5.556 0-5.664.02zm10.606 2.968a4.442 4.442 0 013.506 3.506c.127.703.127 9.766 0 10.469-.293 1.523-1.309 2.725-2.823 3.33-.537.215-.644.225-6.26.283-4.697.05-5.849.088-6.494.215-.83.166-1.923.498-2.753.83l-.518.215.215-.517c.332-.83.664-1.924.83-2.755.127-.644.166-1.796.215-6.494.058-5.615.068-5.722.283-6.26.586-1.474 1.807-2.529 3.252-2.812.625-.127 9.912-.127 10.547-.01zM21.66 28.633c-.332.84-.664 1.933-.83 2.764-.127.644-.166 1.796-.215 6.494-.058 5.615-.068 5.722-.283 6.26-.605 1.513-1.807 2.529-3.33 2.822-.703.127-9.766.127-10.469 0a4.442 4.442 0 01-3.506-3.506c-.127-.703-.127-9.766 0-10.469.293-1.523 1.309-2.724 2.823-3.33.537-.215.644-.225 6.26-.283 6.22-.059 6.406-.078 8.154-.655.488-.166 1.035-.36 1.22-.449.186-.078.352-.146.362-.156.02 0-.069.234-.186.508z"/>
  <path fill="#5BC0BE" d="M32.861 26.523c-.107.02-.44.088-.732.147-2.12.43-4.19 2.188-5.098 4.336-.517 1.23-.517 1.25-.517 7.227 0 5.976 0 5.995.517 7.226.909 2.139 2.832 3.78 5.098 4.355.79.196 11.416.196 12.207 0a7.63 7.63 0 005.479-5.478c.195-.791.195-11.416 0-12.207-.665-2.627-2.608-4.61-5.333-5.45-.41-.126-1.347-.155-5.957-.175-3.007-.01-5.556 0-5.664.02zm10.606 2.97a4.442 4.442 0 013.506 3.505c.127.703.127 9.766 0 10.469a4.442 4.442 0 01-3.506 3.506c-.703.127-9.766.127-10.469 0a4.442 4.442 0 01-3.506-3.506c-.127-.703-.127-9.766 0-10.469.322-1.719 1.748-3.164 3.428-3.496.625-.127 9.912-.127 10.547-.01z"/>
</svg>
