<svg version="1.0" xmlns="http://www.w3.org/2000/svg"
  viewBox="0 0 512.000000 512.000000"
 preserveAspectRatio="xMidYMid meet">

<g transform="translate(0.000000,512.000000) scale(0.100000,-0.100000)"
fill="#5BC0BE" stroke="none">
<path d="M919 4960 c-93 -16 -166 -86 -189 -180 -7 -32 -10 -558 -8 -1801 3
-1730 3 -1757 23 -1779 l19 -21 78 153 77 153 0 1627 c1 1465 3 1628 17 1642
14 14 109 16 897 16 783 0 885 -2 905 -16 22 -15 22 -17 22 -304 l0 -290 29
-32 29 -33 263 -3 c225 -3 266 -5 281 -19 17 -15 18 -63 18 -815 l0 -799 98 3
97 3 0 880 c0 766 -2 883 -15 901 -30 41 -630 689 -652 704 -20 13 -148 15
-983 16 -528 1 -981 -2 -1006 -6z m2263 -592 l70 -78 -146 0 -146 0 0 158 1
157 75 -80 c42 -44 108 -115 146 -157z"/>
<path d="M1183 3874 c-37 -19 -73 -70 -73 -105 0 -38 34 -91 71 -111 32 -17
82 -18 969 -18 887 0 937 1 969 18 37 20 71 73 71 111 0 36 -36 87 -74 105
-31 14 -131 16 -968 16 -835 0 -936 -2 -965 -16z"/>
<path d="M203 3536 c-90 -29 -172 -116 -192 -206 -7 -29 -11 -547 -11 -1487
l0 -1442 21 -58 c28 -73 97 -144 164 -166 45 -16 199 -17 1915 -17 l1867 0 61
31 c113 56 113 57 618 1013 317 602 465 893 470 923 8 55 0 84 -33 124 -50 60
-45 59 -588 59 l-495 0 0 235 c0 210 -2 240 -20 288 -31 84 -111 153 -197 172
l-33 7 0 -351 0 -351 -1067 0 -1068 0 -50 -24 c-27 -12 -67 -42 -89 -66 -27
-30 -141 -249 -398 -769 -198 -399 -396 -799 -439 -888 l-78 -163 -101 0
c-117 0 -161 15 -191 64 -18 30 -19 78 -19 1389 0 1240 1 1361 16 1387 30 49
61 60 178 60 l106 0 0 125 0 125 -152 -1 c-96 0 -169 -5 -195 -13z"/>
<path d="M1215 3171 c-45 -11 -73 -32 -90 -67 -20 -43 -19 -73 5 -111 40 -67
-19 -63 1020 -63 1039 0 980 -4 1020 63 11 18 20 43 20 55 0 39 -28 86 -63
107 -31 19 -58 20 -957 22 -509 0 -938 -2 -955 -6z"/>
<path d="M1181 2442 c-36 -19 -71 -72 -71 -107 0 -59 71 -125 135 -125 27 0
34 6 53 46 33 66 106 139 175 174 l60 30 -159 0 c-135 0 -164 -3 -193 -18z"/>
</g>
</svg>
